<svg xmlns="http://www.w3.org/2000/svg" width="18" height="11.97" viewBox="0 0 18 11.97">
  <defs>
    <style>
      .cls-1 {
        fill: #7cabd3;
        fill-rule: evenodd;
      }
    </style>
  </defs>
  <path id="观看量图标" class="cls-1" d="M5249.21,1910.69a9.134,9.134,0,0,0-5.22-1.69,8.846,8.846,0,0,0-4.75,1.44,16.28,16.28,0,0,0-4.25,4.55,14.6,14.6,0,0,0,3.76,4.32,9.04,9.04,0,0,0,10.47,0,14.367,14.367,0,0,0,3.79-4.32,14.685,14.685,0,0,0-3.8-4.3m-5.21,8.3a4,4,0,1,1,4-4,3.99,3.99,0,0,1-4,4m0-5.99a2,2,0,1,1-2,2A2.006,2.006,0,0,1,5244,1913Z" transform="translate(-5235 -1909)"/>
</svg>
