<svg 
 xmlns="http://www.w3.org/2000/svg"
 xmlns:xlink="http://www.w3.org/1999/xlink"
 width="32px" height="29px">
<defs>
<linearGradient id="PSgrad_0" x1="0%" x2="0%" y1="100%" y2="0%">
  <stop offset="0%" stop-color="rgb(169,212,249)" stop-opacity="1" />
  <stop offset="100%" stop-color="rgb(98,145,185)" stop-opacity="1" />
</linearGradient>

</defs>
<path fill-rule="evenodd"  fill="url(#PSgrad_0)"
 d="M15.969,28.765 C8.356,23.537 0.7,24.140 0.7,24.140 L1.884,5.843 C1.884,5.843 2.651,5.778 3.944,5.893 L2.836,18.659 L2.559,22.228 C2.559,22.228 10.142,21.625 13.986,25.704 L15.969,27.808 L17.952,25.704 C21.796,21.625 29.420,22.318 29.420,22.318 L27.993,5.893 C29.287,5.778 30.53,5.843 30.53,5.843 L31.931,24.140 C31.931,24.140 23.582,23.537 15.969,28.765 ZM15.969,23.562 C11.43,18.335 5.640,18.938 5.640,18.938 L7.229,0.641 C7.229,0.641 11.43,0.38 15.969,5.266 C20.895,0.38 24.709,0.641 24.709,0.641 L26.298,18.938 C26.298,18.938 20.895,18.335 15.969,23.562 ZM21.1,5.524 L15.969,9.561 L10.936,5.524 L9.396,16.782 L11.883,15.980 L12.653,10.363 L15.969,12.770 L19.285,10.363 L20.55,15.980 L22.542,16.782 L21.1,5.524 Z"/>
</svg>
